solid OpenSCAD_Model
  facet normal 0 -0.894428 -0.447213
    outer loop
      vertex -0.14204 -0.571882 2.02573
      vertex 0.14204 -0.571882 2.02573
      vertex 0 -0.618033 2.11803
    endloop
  endfacet
  facet normal -2.25133e-07 -0.894428 -0.447213
    outer loop
      vertex -0.245238 -0.33754 1.55705
      vertex -0.14204 -0.571882 2.02573
      vertex -0.363271 -0.499999 1.88197
    endloop
  endfacet
  facet normal 0 -0.894428 -0.447213
    outer loop
      vertex -0.14204 -0.571882 2.02573
      vertex -0.245238 -0.33754 1.55705
      vertex 0.14204 -0.571882 2.02573
    endloop
  endfacet
  facet normal -0 -0.894428 -0.447213
    outer loop
      vertex 0.245238 -0.33754 1.55705
      vertex 0.14204 -0.571882 2.02573
      vertex -0.245238 -0.33754 1.55705
    endloop
  endfacet
  facet normal 2.25133e-07 -0.894428 -0.447213
    outer loop
      vertex 0.14204 -0.571882 2.02573
      vertex 0.245238 -0.33754 1.55705
      vertex 0.363271 -0.499999 1.88197
    endloop
  endfacet
  facet normal 0 -0.894428 -0.447212
    outer loop
      vertex -0.224515 -0.309017 1.5
      vertex 0.245238 -0.33754 1.55705
      vertex -0.245238 -0.33754 1.55705
    endloop
  endfacet
  facet normal 0 -0.894428 -0.447212
    outer loop
      vertex 0.245238 -0.33754 1.55705
      vertex -0.224515 -0.309017 1.5
      vertex 0.224515 -0.309017 1.5
    endloop
  endfacet
  facet normal 0 0.894427 0.447213
    outer loop
      vertex 0.245238 0.33754 2.44295
      vertex -0.224515 0.309017 2.5
      vertex 0.224515 0.309017 2.5
    endloop
  endfacet
  facet normal 0 0.894427 0.447213
    outer loop
      vertex 0.245238 0.33754 2.44295
      vertex -0.245238 0.33754 2.44295
      vertex -0.224515 0.309017 2.5
    endloop
  endfacet
  facet normal 3.11394e-07 0.894428 0.447213
    outer loop
      vertex 0.14204 0.571882 1.97427
      vertex 0.245238 0.33754 2.44295
      vertex 0.363271 0.499999 2.11803
    endloop
  endfacet
  facet normal 0 0.894428 0.447213
    outer loop
      vertex 0.245238 0.33754 2.44295
      vertex 0.14204 0.571882 1.97427
      vertex -0.245238 0.33754 2.44295
    endloop
  endfacet
  facet normal -0 0.894428 0.447213
    outer loop
      vertex -0.14204 0.571882 1.97427
      vertex -0.245238 0.33754 2.44295
      vertex 0.14204 0.571882 1.97427
    endloop
  endfacet
  facet normal -3.11394e-07 0.894428 0.447213
    outer loop
      vertex -0.245238 0.33754 2.44295
      vertex -0.14204 0.571882 1.97427
      vertex -0.363271 0.499999 2.11803
    endloop
  endfacet
  facet normal -0 0.894428 0.447213
    outer loop
      vertex -0.14204 0.571882 1.97427
      vertex 0.14204 0.571882 1.97427
      vertex 0 0.618033 1.88197
    endloop
  endfacet
  facet normal 0.850651 -0.276393 -0.447213
    outer loop
      vertex 0.587785 0.0416331 1.97427
      vertex 0.396803 0.128929 1.55705
      vertex 0.587785 0.190983 1.88197
    endloop
  endfacet
  facet normal 0.850651 -0.276393 -0.447213
    outer loop
      vertex 0.245238 -0.33754 1.55705
      vertex 0.396803 0.128929 1.55705
      vertex 0.587785 0.0416331 1.97427
    endloop
  endfacet
  facet normal 0.850651 -0.276393 -0.447213
    outer loop
      vertex 0.224515 -0.309017 1.5
      vertex 0.396803 0.128929 1.55705
      vertex 0.245238 -0.33754 1.55705
    endloop
  endfacet
  facet normal 0.850651 -0.276393 -0.447213
    outer loop
      vertex 0.396803 0.128929 1.55705
      vertex 0.224515 -0.309017 1.5
      vertex 0.363272 0.118034 1.5
    endloop
  endfacet
  facet normal 0.850651 -0.276394 -0.447212
    outer loop
      vertex 0.363271 -0.499999 1.88197
      vertex 0.587785 -0.0416331 2.02573
      vertex 0.587785 -0.190983 2.11803
    endloop
  endfacet
  facet normal 0.850651 -0.276394 -0.447212
    outer loop
      vertex 0.587785 -0.0416331 2.02573
      vertex 0.245238 -0.33754 1.55705
      vertex 0.587785 0.0416331 1.97427
    endloop
  endfacet
  facet normal 0.850651 -0.276394 -0.447212
    outer loop
      vertex 0.587785 -0.0416331 2.02573
      vertex 0.363271 -0.499999 1.88197
      vertex 0.245238 -0.33754 1.55705
    endloop
  endfacet
  facet normal -0.850651 0.276393 0.447213
    outer loop
      vertex -0.396803 -0.128929 2.44295
      vertex -0.245238 0.33754 2.44295
      vertex -0.587785 -0.0416331 2.02573
    endloop
  endfacet
  facet normal -0.850651 0.276393 0.447214
    outer loop
      vertex -0.245238 0.33754 2.44295
      vertex -0.396803 -0.128929 2.44295
      vertex -0.224515 0.309017 2.5
    endloop
  endfacet
  facet normal -0.850651 0.276393 0.447214
    outer loop
      vertex -0.224515 0.309017 2.5
      vertex -0.396803 -0.128929 2.44295
      vertex -0.363272 -0.118034 2.5
    endloop
  endfacet
  facet normal -0.850651 0.276393 0.447213
    outer loop
      vertex -0.396803 -0.128929 2.44295
      vertex -0.587785 -0.0416331 2.02573
      vertex -0.587785 -0.190983 2.11803
    endloop
  endfacet
  facet normal -0.850651 0.276394 0.447212
    outer loop
      vertex -0.587785 0.0416331 1.97427
      vertex -0.363271 0.499999 2.11803
      vertex -0.587785 0.190983 1.88197
    endloop
  endfacet
  facet normal -0.850651 0.276394 0.447212
    outer loop
      vertex -0.363271 0.499999 2.11803
      vertex -0.587785 0.0416331 1.97427
      vertex -0.245238 0.33754 2.44295
    endloop
  endfacet
  facet normal -0.850651 0.276394 0.447212
    outer loop
      vertex -0.245238 0.33754 2.44295
      vertex -0.587785 0.0416331 1.97427
      vertex -0.587785 -0.0416331 2.02573
    endloop
  endfacet
  facet normal 0.525731 0.723607 -0.447213
    outer loop
      vertex 0.396803 0.128929 1.55705
      vertex 0 0.618033 1.88197
      vertex 0.14204 0.571882 1.97427
    endloop
  endfacet
  facet normal 0.525731 0.723607 -0.447213
    outer loop
      vertex 0 0.381966 1.5
      vertex 0.396803 0.128929 1.55705
      vertex 0.363272 0.118034 1.5
    endloop
  endfacet
  facet normal 0.525731 0.723607 -0.447213
    outer loop
      vertex 0.396803 0.128929 1.55705
      vertex 0 0.381966 1.5
      vertex 0 0.618033 1.88197
    endloop
  endfacet
  facet normal 0.525732 0.723607 -0.447213
    outer loop
      vertex 0.587785 0.190983 1.88197
      vertex 0.14204 0.571882 1.97427
      vertex 0.363271 0.499999 2.11803
    endloop
  endfacet
  facet normal 0.525732 0.723607 -0.447212
    outer loop
      vertex 0.14204 0.571882 1.97427
      vertex 0.587785 0.190983 1.88197
      vertex 0.396803 0.128929 1.55705
    endloop
  endfacet
  facet normal -0.525731 -0.723607 0.447214
    outer loop
      vertex -0.396803 -0.128929 2.44295
      vertex 0 -0.381966 2.5
      vertex -0.363272 -0.118034 2.5
    endloop
  endfacet
  facet normal -0.525731 -0.723607 0.447213
    outer loop
      vertex -0.396803 -0.128929 2.44295
      vertex 0 -0.618033 2.11803
      vertex 0 -0.381966 2.5
    endloop
  endfacet
  facet normal -0.525731 -0.723607 0.447213
    outer loop
      vertex 0 -0.618033 2.11803
      vertex -0.396803 -0.128929 2.44295
      vertex -0.14204 -0.571882 2.02573
    endloop
  endfacet
  facet normal -0.525732 -0.723607 0.447212
    outer loop
      vertex -0.587785 -0.190983 2.11803
      vertex -0.14204 -0.571882 2.02573
      vertex -0.396803 -0.128929 2.44295
    endloop
  endfacet
  facet normal -0.525731 -0.723607 0.447212
    outer loop
      vertex -0.14204 -0.571882 2.02573
      vertex -0.587785 -0.190983 2.11803
      vertex -0.363271 -0.499999 1.88197
    endloop
  endfacet
  facet normal -0.525731 0.723607 -0.447213
    outer loop
      vertex 0 0.618033 1.88197
      vertex -0.396803 0.128929 1.55705
      vertex -0.14204 0.571882 1.97427
    endloop
  endfacet
  facet normal -0.525731 0.723607 -0.447213
    outer loop
      vertex 0 0.381966 1.5
      vertex -0.396803 0.128929 1.55705
      vertex 0 0.618033 1.88197
    endloop
  endfacet
  facet normal -0.525731 0.723607 -0.447213
    outer loop
      vertex -0.396803 0.128929 1.55705
      vertex 0 0.381966 1.5
      vertex -0.363272 0.118034 1.5
    endloop
  endfacet
  facet normal -0.525732 0.723607 -0.447213
    outer loop
      vertex -0.14204 0.571882 1.97427
      vertex -0.587785 0.190983 1.88197
      vertex -0.363271 0.499999 2.11803
    endloop
  endfacet
  facet normal -0.525732 0.723607 -0.447212
    outer loop
      vertex -0.587785 0.190983 1.88197
      vertex -0.14204 0.571882 1.97427
      vertex -0.396803 0.128929 1.55705
    endloop
  endfacet
  facet normal 0.525731 -0.723607 0.447214
    outer loop
      vertex 0 -0.381966 2.5
      vertex 0.396803 -0.128929 2.44295
      vertex 0.363272 -0.118034 2.5
    endloop
  endfacet
  facet normal 0.525731 -0.723607 0.447213
    outer loop
      vertex 0 -0.618033 2.11803
      vertex 0.396803 -0.128929 2.44295
      vertex 0 -0.381966 2.5
    endloop
  endfacet
  facet normal 0.525731 -0.723607 0.447213
    outer loop
      vertex 0.396803 -0.128929 2.44295
      vertex 0 -0.618033 2.11803
      vertex 0.14204 -0.571882 2.02573
    endloop
  endfacet
  facet normal 0.525732 -0.723607 0.447212
    outer loop
      vertex 0.14204 -0.571882 2.02573
      vertex 0.587785 -0.190983 2.11803
      vertex 0.396803 -0.128929 2.44295
    endloop
  endfacet
  facet normal 0.525731 -0.723607 0.447212
    outer loop
      vertex 0.587785 -0.190983 2.11803
      vertex 0.14204 -0.571882 2.02573
      vertex 0.363271 -0.499999 1.88197
    endloop
  endfacet
  facet normal -0.850651 -0.276393 -0.447213
    outer loop
      vertex -0.224515 -0.309017 1.5
      vertex -0.396803 0.128929 1.55705
      vertex -0.363272 0.118034 1.5
    endloop
  endfacet
  facet normal -0.850651 -0.276393 -0.447213
    outer loop
      vertex -0.396803 0.128929 1.55705
      vertex -0.587785 0.0416331 1.97427
      vertex -0.587785 0.190983 1.88197
    endloop
  endfacet
  facet normal -0.850651 -0.276393 -0.447213
    outer loop
      vertex -0.396803 0.128929 1.55705
      vertex -0.224515 -0.309017 1.5
      vertex -0.245238 -0.33754 1.55705
    endloop
  endfacet
  facet normal -0.850651 -0.276393 -0.447213
    outer loop
      vertex -0.396803 0.128929 1.55705
      vertex -0.245238 -0.33754 1.55705
      vertex -0.587785 0.0416331 1.97427
    endloop
  endfacet
  facet normal -0.850651 -0.276394 -0.447212
    outer loop
      vertex -0.245238 -0.33754 1.55705
      vertex -0.587785 -0.0416331 2.02573
      vertex -0.587785 0.0416331 1.97427
    endloop
  endfacet
  facet normal -0.850651 -0.276394 -0.447212
    outer loop
      vertex -0.363271 -0.499999 1.88197
      vertex -0.587785 -0.0416331 2.02573
      vertex -0.245238 -0.33754 1.55705
    endloop
  endfacet
  facet normal -0.850651 -0.276394 -0.447212
    outer loop
      vertex -0.587785 -0.0416331 2.02573
      vertex -0.363271 -0.499999 1.88197
      vertex -0.587785 -0.190983 2.11803
    endloop
  endfacet
  facet normal 0.850651 0.276393 0.447214
    outer loop
      vertex 0.396803 -0.128929 2.44295
      vertex 0.245238 0.33754 2.44295
      vertex 0.224515 0.309017 2.5
    endloop
  endfacet
  facet normal 0.850651 0.276393 0.447214
    outer loop
      vertex 0.396803 -0.128929 2.44295
      vertex 0.224515 0.309017 2.5
      vertex 0.363272 -0.118034 2.5
    endloop
  endfacet
  facet normal 0.850651 0.276393 0.447213
    outer loop
      vertex 0.245238 0.33754 2.44295
      vertex 0.396803 -0.128929 2.44295
      vertex 0.587785 -0.0416331 2.02573
    endloop
  endfacet
  facet normal 0.850651 0.276393 0.447213
    outer loop
      vertex 0.587785 -0.0416331 2.02573
      vertex 0.396803 -0.128929 2.44295
      vertex 0.587785 -0.190983 2.11803
    endloop
  endfacet
  facet normal 0.850651 0.276394 0.447212
    outer loop
      vertex 0.587785 0.0416331 1.97427
      vertex 0.363271 0.499999 2.11803
      vertex 0.245238 0.33754 2.44295
    endloop
  endfacet
  facet normal 0.850651 0.276394 0.447212
    outer loop
      vertex 0.363271 0.499999 2.11803
      vertex 0.587785 0.0416331 1.97427
      vertex 0.587785 0.190983 1.88197
    endloop
  endfacet
  facet normal 0.850651 0.276394 0.447212
    outer loop
      vertex 0.587785 0.0416331 1.97427
      vertex 0.245238 0.33754 2.44295
      vertex 0.587785 -0.0416331 2.02573
    endloop
  endfacet
  facet normal 0 0 1
    outer loop
      vertex 0.224515 0.309017 2.5
      vertex 0 -0.381966 2.5
      vertex 0.363272 -0.118034 2.5
    endloop
  endfacet
  facet normal -0 0 1
    outer loop
      vertex -0.224515 0.309017 2.5
      vertex 0 -0.381966 2.5
      vertex 0.224515 0.309017 2.5
    endloop
  endfacet
  facet normal 0 0 1
    outer loop
      vertex 0 -0.381966 2.5
      vertex -0.224515 0.309017 2.5
      vertex -0.363272 -0.118034 2.5
    endloop
  endfacet
  facet normal 0 0 -1
    outer loop
      vertex 0.224515 -0.309017 1.5
      vertex 0 0.381966 1.5
      vertex 0.363272 0.118034 1.5
    endloop
  endfacet
  facet normal 0 0 -1
    outer loop
      vertex -0.224515 -0.309017 1.5
      vertex 0 0.381966 1.5
      vertex 0.224515 -0.309017 1.5
    endloop
  endfacet
  facet normal 0 0 -1
    outer loop
      vertex 0 0.381966 1.5
      vertex -0.224515 -0.309017 1.5
      vertex -0.363272 0.118034 1.5
    endloop
  endfacet
  facet normal 0 -0.894427 -0.447213
    outer loop
      vertex -0.28408 -1.14376 0.0514618
      vertex 0.28408 -1.14376 0.0514618
      vertex 0 -1.23607 0.236068
    endloop
  endfacet
  facet normal -1.0493e-07 -0.894428 -0.447213
    outer loop
      vertex -0.490476 -0.675081 -0.885906
      vertex -0.28408 -1.14376 0.0514618
      vertex -0.726542 -0.999999 -0.236069
    endloop
  endfacet
  facet normal 0 -0.894428 -0.447213
    outer loop
      vertex -0.28408 -1.14376 0.0514618
      vertex -0.490476 -0.675081 -0.885906
      vertex 0.28408 -1.14376 0.0514618
    endloop
  endfacet
  facet normal -0 -0.894428 -0.447213
    outer loop
      vertex 0.490476 -0.675081 -0.885906
      vertex 0.28408 -1.14376 0.0514618
      vertex -0.490476 -0.675081 -0.885906
    endloop
  endfacet
  facet normal 1.0493e-07 -0.894428 -0.447213
    outer loop
      vertex 0.28408 -1.14376 0.0514618
      vertex 0.490476 -0.675081 -0.885906
      vertex 0.726542 -0.999999 -0.236069
    endloop
  endfacet
  facet normal 0 -0.894428 -0.447213
    outer loop
      vertex -0.449029 -0.618034 -1
      vertex 0.490476 -0.675081 -0.885906
      vertex -0.490476 -0.675081 -0.885906
    endloop
  endfacet
  facet normal 0 -0.894428 -0.447213
    outer loop
      vertex 0.490476 -0.675081 -0.885906
      vertex -0.449029 -0.618034 -1
      vertex 0.449029 -0.618034 -1
    endloop
  endfacet
  facet normal 0 0.894428 0.447213
    outer loop
      vertex 0.490476 0.675081 0.885906
      vertex -0.449029 0.618034 1
      vertex 0.449029 0.618034 1
    endloop
  endfacet
  facet normal 0 0.894428 0.447213
    outer loop
      vertex 0.490476 0.675081 0.885906
      vertex -0.490476 0.675081 0.885906
      vertex -0.449029 0.618034 1
    endloop
  endfacet
  facet normal 1.0493e-07 0.894428 0.447213
    outer loop
      vertex 0.28408 1.14376 -0.0514618
      vertex 0.490476 0.675081 0.885906
      vertex 0.726542 0.999999 0.236069
    endloop
  endfacet
  facet normal 0 0.894428 0.447213
    outer loop
      vertex 0.490476 0.675081 0.885906
      vertex 0.28408 1.14376 -0.0514618
      vertex -0.490476 0.675081 0.885906
    endloop
  endfacet
  facet normal -0 0.894428 0.447213
    outer loop
      vertex -0.28408 1.14376 -0.0514618
      vertex -0.490476 0.675081 0.885906
      vertex 0.28408 1.14376 -0.0514618
    endloop
  endfacet
  facet normal -1.0493e-07 0.894428 0.447213
    outer loop
      vertex -0.490476 0.675081 0.885906
      vertex -0.28408 1.14376 -0.0514618
      vertex -0.726542 0.999999 0.236069
    endloop
  endfacet
  facet normal -0 0.894427 0.447213
    outer loop
      vertex -0.28408 1.14376 -0.0514618
      vertex 0.28408 1.14376 -0.0514618
      vertex 0 1.23607 -0.236068
    endloop
  endfacet
  facet normal 0.850651 -0.276393 -0.447213
    outer loop
      vertex 1.17557 0.0832661 -0.0514615
      vertex 0.793605 0.257858 -0.885907
      vertex 1.17557 0.381965 -0.236068
    endloop
  endfacet
  facet normal 0.850651 -0.276393 -0.447213
    outer loop
      vertex 0.490476 -0.675081 -0.885906
      vertex 0.793605 0.257858 -0.885907
      vertex 1.17557 0.0832661 -0.0514615
    endloop
  endfacet
  facet normal 0.850651 -0.276393 -0.447213
    outer loop
      vertex 0.449029 -0.618034 -1
      vertex 0.793605 0.257858 -0.885907
      vertex 0.490476 -0.675081 -0.885906
    endloop
  endfacet
  facet normal 0.850651 -0.276393 -0.447213
    outer loop
      vertex 0.793605 0.257858 -0.885907
      vertex 0.449029 -0.618034 -1
      vertex 0.726543 0.236068 -1
    endloop
  endfacet
  facet normal 0.850651 -0.276394 -0.447212
    outer loop
      vertex 0.726542 -0.999999 -0.236069
      vertex 1.17557 -0.0832661 0.0514615
      vertex 1.17557 -0.381965 0.236068
    endloop
  endfacet
  facet normal 0.850651 -0.276394 -0.447212
    outer loop
      vertex 1.17557 -0.0832661 0.0514615
      vertex 0.490476 -0.675081 -0.885906
      vertex 1.17557 0.0832661 -0.0514615
    endloop
  endfacet
  facet normal 0.850651 -0.276394 -0.447212
    outer loop
      vertex 1.17557 -0.0832661 0.0514615
      vertex 0.726542 -0.999999 -0.236069
      vertex 0.490476 -0.675081 -0.885906
    endloop
  endfacet
  facet normal -0.850651 0.276393 0.447213
    outer loop
      vertex -0.793605 -0.257858 0.885907
      vertex -0.490476 0.675081 0.885906
      vertex -1.17557 -0.0832661 0.0514615
    endloop
  endfacet
  facet normal -0.850651 0.276393 0.447213
    outer loop
      vertex -0.490476 0.675081 0.885906
      vertex -0.793605 -0.257858 0.885907
      vertex -0.449029 0.618034 1
    endloop
  endfacet
  facet normal -0.850651 0.276393 0.447213
    outer loop
      vertex -0.449029 0.618034 1
      vertex -0.793605 -0.257858 0.885907
      vertex -0.726543 -0.236068 1
    endloop
  endfacet
  facet normal -0.850651 0.276393 0.447213
    outer loop
      vertex -0.793605 -0.257858 0.885907
      vertex -1.17557 -0.0832661 0.0514615
      vertex -1.17557 -0.381965 0.236068
    endloop
  endfacet
  facet normal -0.850651 0.276394 0.447212
    outer loop
      vertex -1.17557 0.0832661 -0.0514615
      vertex -0.726542 0.999999 0.236069
      vertex -1.17557 0.381965 -0.236068
    endloop
  endfacet
  facet normal -0.850651 0.276394 0.447212
    outer loop
      vertex -0.726542 0.999999 0.236069
      vertex -1.17557 0.0832661 -0.0514615
      vertex -0.490476 0.675081 0.885906
    endloop
  endfacet
  facet normal -0.850651 0.276394 0.447212
    outer loop
      vertex -0.490476 0.675081 0.885906
      vertex -1.17557 0.0832661 -0.0514615
      vertex -1.17557 -0.0832661 0.0514615
    endloop
  endfacet
  facet normal 0.525731 0.723607 -0.447213
    outer loop
      vertex 0.793605 0.257858 -0.885907
      vertex 0 1.23607 -0.236068
      vertex 0.28408 1.14376 -0.0514618
    endloop
  endfacet
  facet normal 0.525731 0.723607 -0.447213
    outer loop
      vertex 0 0.763932 -1
      vertex 0.793605 0.257858 -0.885907
      vertex 0.726543 0.236068 -1
    endloop
  endfacet
  facet normal 0.525731 0.723607 -0.447213
    outer loop
      vertex 0.793605 0.257858 -0.885907
      vertex 0 0.763932 -1
      vertex 0 1.23607 -0.236068
    endloop
  endfacet
  facet normal 0.525732 0.723607 -0.447212
    outer loop
      vertex 1.17557 0.381965 -0.236068
      vertex 0.28408 1.14376 -0.0514618
      vertex 0.726542 0.999999 0.236069
    endloop
  endfacet
  facet normal 0.525732 0.723607 -0.447212
    outer loop
      vertex 0.28408 1.14376 -0.0514618
      vertex 1.17557 0.381965 -0.236068
      vertex 0.793605 0.257858 -0.885907
    endloop
  endfacet
  facet normal -0.525731 -0.723607 0.447213
    outer loop
      vertex -0.793605 -0.257858 0.885907
      vertex 0 -0.763932 1
      vertex -0.726543 -0.236068 1
    endloop
  endfacet
  facet normal -0.525731 -0.723607 0.447213
    outer loop
      vertex -0.793605 -0.257858 0.885907
      vertex 0 -1.23607 0.236068
      vertex 0 -0.763932 1
    endloop
  endfacet
  facet normal -0.525731 -0.723607 0.447213
    outer loop
      vertex 0 -1.23607 0.236068
      vertex -0.793605 -0.257858 0.885907
      vertex -0.28408 -1.14376 0.0514618
    endloop
  endfacet
  facet normal -0.525732 -0.723607 0.447212
    outer loop
      vertex -1.17557 -0.381965 0.236068
      vertex -0.28408 -1.14376 0.0514618
      vertex -0.793605 -0.257858 0.885907
    endloop
  endfacet
  facet normal -0.525732 -0.723607 0.447212
    outer loop
      vertex -0.28408 -1.14376 0.0514618
      vertex -1.17557 -0.381965 0.236068
      vertex -0.726542 -0.999999 -0.236069
    endloop
  endfacet
  facet normal -0.525731 0.723607 -0.447213
    outer loop
      vertex 0 1.23607 -0.236068
      vertex -0.793605 0.257858 -0.885907
      vertex -0.28408 1.14376 -0.0514618
    endloop
  endfacet
  facet normal -0.525731 0.723607 -0.447213
    outer loop
      vertex 0 0.763932 -1
      vertex -0.793605 0.257858 -0.885907
      vertex 0 1.23607 -0.236068
    endloop
  endfacet
  facet normal -0.525731 0.723607 -0.447213
    outer loop
      vertex -0.793605 0.257858 -0.885907
      vertex 0 0.763932 -1
      vertex -0.726543 0.236068 -1
    endloop
  endfacet
  facet normal -0.525732 0.723607 -0.447212
    outer loop
      vertex -0.28408 1.14376 -0.0514618
      vertex -1.17557 0.381965 -0.236068
      vertex -0.726542 0.999999 0.236069
    endloop
  endfacet
  facet normal -0.525732 0.723607 -0.447212
    outer loop
      vertex -1.17557 0.381965 -0.236068
      vertex -0.28408 1.14376 -0.0514618
      vertex -0.793605 0.257858 -0.885907
    endloop
  endfacet
  facet normal 0.525731 -0.723607 0.447213
    outer loop
      vertex 0 -0.763932 1
      vertex 0.793605 -0.257858 0.885907
      vertex 0.726543 -0.236068 1
    endloop
  endfacet
  facet normal 0.525731 -0.723607 0.447213
    outer loop
      vertex 0 -1.23607 0.236068
      vertex 0.793605 -0.257858 0.885907
      vertex 0 -0.763932 1
    endloop
  endfacet
  facet normal 0.525731 -0.723607 0.447213
    outer loop
      vertex 0.793605 -0.257858 0.885907
      vertex 0 -1.23607 0.236068
      vertex 0.28408 -1.14376 0.0514618
    endloop
  endfacet
  facet normal 0.525732 -0.723607 0.447212
    outer loop
      vertex 0.28408 -1.14376 0.0514618
      vertex 1.17557 -0.381965 0.236068
      vertex 0.793605 -0.257858 0.885907
    endloop
  endfacet
  facet normal 0.525732 -0.723607 0.447212
    outer loop
      vertex 1.17557 -0.381965 0.236068
      vertex 0.28408 -1.14376 0.0514618
      vertex 0.726542 -0.999999 -0.236069
    endloop
  endfacet
  facet normal -0.850651 -0.276393 -0.447213
    outer loop
      vertex -0.449029 -0.618034 -1
      vertex -0.793605 0.257858 -0.885907
      vertex -0.726543 0.236068 -1
    endloop
  endfacet
  facet normal -0.850651 -0.276393 -0.447213
    outer loop
      vertex -0.793605 0.257858 -0.885907
      vertex -1.17557 0.0832661 -0.0514615
      vertex -1.17557 0.381965 -0.236068
    endloop
  endfacet
  facet normal -0.850651 -0.276393 -0.447213
    outer loop
      vertex -0.793605 0.257858 -0.885907
      vertex -0.449029 -0.618034 -1
      vertex -0.490476 -0.675081 -0.885906
    endloop
  endfacet
  facet normal -0.850651 -0.276393 -0.447213
    outer loop
      vertex -0.793605 0.257858 -0.885907
      vertex -0.490476 -0.675081 -0.885906
      vertex -1.17557 0.0832661 -0.0514615
    endloop
  endfacet
  facet normal -0.850651 -0.276394 -0.447212
    outer loop
      vertex -0.490476 -0.675081 -0.885906
      vertex -1.17557 -0.0832661 0.0514615
      vertex -1.17557 0.0832661 -0.0514615
    endloop
  endfacet
  facet normal -0.850651 -0.276394 -0.447212
    outer loop
      vertex -0.726542 -0.999999 -0.236069
      vertex -1.17557 -0.0832661 0.0514615
      vertex -0.490476 -0.675081 -0.885906
    endloop
  endfacet
  facet normal -0.850651 -0.276394 -0.447212
    outer loop
      vertex -1.17557 -0.0832661 0.0514615
      vertex -0.726542 -0.999999 -0.236069
      vertex -1.17557 -0.381965 0.236068
    endloop
  endfacet
  facet normal 0.850651 0.276393 0.447213
    outer loop
      vertex 0.793605 -0.257858 0.885907
      vertex 0.490476 0.675081 0.885906
      vertex 0.449029 0.618034 1
    endloop
  endfacet
  facet normal 0.850651 0.276393 0.447213
    outer loop
      vertex 0.793605 -0.257858 0.885907
      vertex 0.449029 0.618034 1
      vertex 0.726543 -0.236068 1
    endloop
  endfacet
  facet normal 0.850651 0.276393 0.447213
    outer loop
      vertex 0.490476 0.675081 0.885906
      vertex 0.793605 -0.257858 0.885907
      vertex 1.17557 -0.0832661 0.0514615
    endloop
  endfacet
  facet normal 0.850651 0.276393 0.447213
    outer loop
      vertex 1.17557 -0.0832661 0.0514615
      vertex 0.793605 -0.257858 0.885907
      vertex 1.17557 -0.381965 0.236068
    endloop
  endfacet
  facet normal 0.850651 0.276394 0.447212
    outer loop
      vertex 1.17557 0.0832661 -0.0514615
      vertex 0.726542 0.999999 0.236069
      vertex 0.490476 0.675081 0.885906
    endloop
  endfacet
  facet normal 0.850651 0.276394 0.447212
    outer loop
      vertex 0.726542 0.999999 0.236069
      vertex 1.17557 0.0832661 -0.0514615
      vertex 1.17557 0.381965 -0.236068
    endloop
  endfacet
  facet normal 0.850651 0.276394 0.447212
    outer loop
      vertex 1.17557 0.0832661 -0.0514615
      vertex 0.490476 0.675081 0.885906
      vertex 1.17557 -0.0832661 0.0514615
    endloop
  endfacet
  facet normal 0 0 1
    outer loop
      vertex 0.449029 0.618034 1
      vertex 0 -0.763932 1
      vertex 0.726543 -0.236068 1
    endloop
  endfacet
  facet normal -0 0 1
    outer loop
      vertex -0.449029 0.618034 1
      vertex 0 -0.763932 1
      vertex 0.449029 0.618034 1
    endloop
  endfacet
  facet normal 0 0 1
    outer loop
      vertex 0 -0.763932 1
      vertex -0.449029 0.618034 1
      vertex -0.726543 -0.236068 1
    endloop
  endfacet
  facet normal 0 0 -1
    outer loop
      vertex 0.449029 -0.618034 -1
      vertex 0 0.763932 -1
      vertex 0.726543 0.236068 -1
    endloop
  endfacet
  facet normal 0 0 -1
    outer loop
      vertex -0.449029 -0.618034 -1
      vertex 0 0.763932 -1
      vertex 0.449029 -0.618034 -1
    endloop
  endfacet
  facet normal 0 0 -1
    outer loop
      vertex 0 0.763932 -1
      vertex -0.449029 -0.618034 -1
      vertex -0.726543 0.236068 -1
    endloop
  endfacet
  facet normal 0 -0.894427 -0.447213
    outer loop
      vertex -0.568159 -2.28753 -3.89708
      vertex 0.568159 -2.28753 -3.89708
      vertex 0 -2.47213 -3.52786
    endloop
  endfacet
  facet normal -1.27656e-07 -0.894428 -0.447213
    outer loop
      vertex -0.980952 -1.35016 -5.77181
      vertex -0.568159 -2.28753 -3.89708
      vertex -1.45308 -2 -4.47214
    endloop
  endfacet
  facet normal 0 -0.894428 -0.447213
    outer loop
      vertex -0.568159 -2.28753 -3.89708
      vertex -0.980952 -1.35016 -5.77181
      vertex 0.568159 -2.28753 -3.89708
    endloop
  endfacet
  facet normal -0 -0.894428 -0.447213
    outer loop
      vertex 0.980952 -1.35016 -5.77181
      vertex 0.568159 -2.28753 -3.89708
      vertex -0.980952 -1.35016 -5.77181
    endloop
  endfacet
  facet normal 1.27656e-07 -0.894428 -0.447213
    outer loop
      vertex 0.568159 -2.28753 -3.89708
      vertex 0.980952 -1.35016 -5.77181
      vertex 1.45308 -2 -4.47214
    endloop
  endfacet
  facet normal 0 -0.894428 -0.447212
    outer loop
      vertex -0.898058 -1.23607 -6
      vertex 0.980952 -1.35016 -5.77181
      vertex -0.980952 -1.35016 -5.77181
    endloop
  endfacet
  facet normal 0 -0.894428 -0.447212
    outer loop
      vertex 0.980952 -1.35016 -5.77181
      vertex -0.898058 -1.23607 -6
      vertex 0.898058 -1.23607 -6
    endloop
  endfacet
  facet normal 0 0.894428 0.447213
    outer loop
      vertex 0.980952 1.35016 -2.22819
      vertex -0.898058 1.23607 -2
      vertex 0.898058 1.23607 -2
    endloop
  endfacet
  facet normal 0 0.894428 0.447213
    outer loop
      vertex 0.980952 1.35016 -2.22819
      vertex -0.980952 1.35016 -2.22819
      vertex -0.898058 1.23607 -2
    endloop
  endfacet
  facet normal 1.27656e-07 0.894428 0.447213
    outer loop
      vertex 0.568159 2.28753 -4.10292
      vertex 0.980952 1.35016 -2.22819
      vertex 1.45308 2 -3.52786
    endloop
  endfacet
  facet normal 0 0.894428 0.447213
    outer loop
      vertex 0.980952 1.35016 -2.22819
      vertex 0.568159 2.28753 -4.10292
      vertex -0.980952 1.35016 -2.22819
    endloop
  endfacet
  facet normal -0 0.894428 0.447213
    outer loop
      vertex -0.568159 2.28753 -4.10292
      vertex -0.980952 1.35016 -2.22819
      vertex 0.568159 2.28753 -4.10292
    endloop
  endfacet
  facet normal -1.27656e-07 0.894428 0.447213
    outer loop
      vertex -0.980952 1.35016 -2.22819
      vertex -0.568159 2.28753 -4.10292
      vertex -1.45308 2 -3.52786
    endloop
  endfacet
  facet normal -0 0.894428 0.447213
    outer loop
      vertex -0.568159 2.28753 -4.10292
      vertex 0.568159 2.28753 -4.10292
      vertex 0 2.47213 -4.47214
    endloop
  endfacet
  facet normal 0.850651 -0.276393 -0.447213
    outer loop
      vertex 2.35114 0.166532 -4.10292
      vertex 1.58721 0.515715 -5.77181
      vertex 2.35114 0.76393 -4.47214
    endloop
  endfacet
  facet normal 0.850651 -0.276393 -0.447213
    outer loop
      vertex 0.980952 -1.35016 -5.77181
      vertex 1.58721 0.515715 -5.77181
      vertex 2.35114 0.166532 -4.10292
    endloop
  endfacet
  facet normal 0.850651 -0.276393 -0.447213
    outer loop
      vertex 0.898058 -1.23607 -6
      vertex 1.58721 0.515715 -5.77181
      vertex 0.980952 -1.35016 -5.77181
    endloop
  endfacet
  facet normal 0.850651 -0.276393 -0.447213
    outer loop
      vertex 1.58721 0.515715 -5.77181
      vertex 0.898058 -1.23607 -6
      vertex 1.45309 0.472136 -6
    endloop
  endfacet
  facet normal 0.850651 -0.276394 -0.447212
    outer loop
      vertex 1.45308 -2 -4.47214
      vertex 2.35114 -0.166532 -3.89708
      vertex 2.35114 -0.76393 -3.52786
    endloop
  endfacet
  facet normal 0.850651 -0.276393 -0.447213
    outer loop
      vertex 2.35114 -0.166532 -3.89708
      vertex 0.980952 -1.35016 -5.77181
      vertex 2.35114 0.166532 -4.10292
    endloop
  endfacet
  facet normal 0.850651 -0.276394 -0.447212
    outer loop
      vertex 2.35114 -0.166532 -3.89708
      vertex 1.45308 -2 -4.47214
      vertex 0.980952 -1.35016 -5.77181
    endloop
  endfacet
  facet normal -0.850651 0.276393 0.447213
    outer loop
      vertex -1.58721 -0.515715 -2.22819
      vertex -0.980952 1.35016 -2.22819
      vertex -2.35114 -0.166532 -3.89708
    endloop
  endfacet
  facet normal -0.850651 0.276393 0.447213
    outer loop
      vertex -0.980952 1.35016 -2.22819
      vertex -1.58721 -0.515715 -2.22819
      vertex -0.898058 1.23607 -2
    endloop
  endfacet
  facet normal -0.850651 0.276393 0.447213
    outer loop
      vertex -0.898058 1.23607 -2
      vertex -1.58721 -0.515715 -2.22819
      vertex -1.45309 -0.472136 -2
    endloop
  endfacet
  facet normal -0.850651 0.276393 0.447213
    outer loop
      vertex -1.58721 -0.515715 -2.22819
      vertex -2.35114 -0.166532 -3.89708
      vertex -2.35114 -0.76393 -3.52786
    endloop
  endfacet
  facet normal -0.850651 0.276394 0.447212
    outer loop
      vertex -2.35114 0.166532 -4.10292
      vertex -1.45308 2 -3.52786
      vertex -2.35114 0.76393 -4.47214
    endloop
  endfacet
  facet normal -0.850651 0.276394 0.447212
    outer loop
      vertex -1.45308 2 -3.52786
      vertex -2.35114 0.166532 -4.10292
      vertex -0.980952 1.35016 -2.22819
    endloop
  endfacet
  facet normal -0.850651 0.276393 0.447213
    outer loop
      vertex -0.980952 1.35016 -2.22819
      vertex -2.35114 0.166532 -4.10292
      vertex -2.35114 -0.166532 -3.89708
    endloop
  endfacet
  facet normal 0.525731 0.723607 -0.447213
    outer loop
      vertex 1.58721 0.515715 -5.77181
      vertex 0 2.47213 -4.47214
      vertex 0.568159 2.28753 -4.10292
    endloop
  endfacet
  facet normal 0.525731 0.723607 -0.447213
    outer loop
      vertex 0 1.52786 -6
      vertex 1.58721 0.515715 -5.77181
      vertex 1.45309 0.472136 -6
    endloop
  endfacet
  facet normal 0.525731 0.723607 -0.447213
    outer loop
      vertex 1.58721 0.515715 -5.77181
      vertex 0 1.52786 -6
      vertex 0 2.47213 -4.47214
    endloop
  endfacet
  facet normal 0.525732 0.723607 -0.447212
    outer loop
      vertex 2.35114 0.76393 -4.47214
      vertex 0.568159 2.28753 -4.10292
      vertex 1.45308 2 -3.52786
    endloop
  endfacet
  facet normal 0.525732 0.723607 -0.447212
    outer loop
      vertex 0.568159 2.28753 -4.10292
      vertex 2.35114 0.76393 -4.47214
      vertex 1.58721 0.515715 -5.77181
    endloop
  endfacet
  facet normal -0.525731 -0.723607 0.447213
    outer loop
      vertex -1.58721 -0.515715 -2.22819
      vertex 0 -1.52786 -2
      vertex -1.45309 -0.472136 -2
    endloop
  endfacet
  facet normal -0.525731 -0.723607 0.447213
    outer loop
      vertex -1.58721 -0.515715 -2.22819
      vertex 0 -2.47213 -3.52786
      vertex 0 -1.52786 -2
    endloop
  endfacet
  facet normal -0.525731 -0.723607 0.447213
    outer loop
      vertex 0 -2.47213 -3.52786
      vertex -1.58721 -0.515715 -2.22819
      vertex -0.568159 -2.28753 -3.89708
    endloop
  endfacet
  facet normal -0.525732 -0.723607 0.447212
    outer loop
      vertex -2.35114 -0.76393 -3.52786
      vertex -0.568159 -2.28753 -3.89708
      vertex -1.58721 -0.515715 -2.22819
    endloop
  endfacet
  facet normal -0.525732 -0.723607 0.447213
    outer loop
      vertex -0.568159 -2.28753 -3.89708
      vertex -2.35114 -0.76393 -3.52786
      vertex -1.45308 -2 -4.47214
    endloop
  endfacet
  facet normal -0.525731 0.723607 -0.447213
    outer loop
      vertex 0 2.47213 -4.47214
      vertex -1.58721 0.515715 -5.77181
      vertex -0.568159 2.28753 -4.10292
    endloop
  endfacet
  facet normal -0.525731 0.723607 -0.447213
    outer loop
      vertex 0 1.52786 -6
      vertex -1.58721 0.515715 -5.77181
      vertex 0 2.47213 -4.47214
    endloop
  endfacet
  facet normal -0.525731 0.723607 -0.447213
    outer loop
      vertex -1.58721 0.515715 -5.77181
      vertex 0 1.52786 -6
      vertex -1.45309 0.472136 -6
    endloop
  endfacet
  facet normal -0.525732 0.723607 -0.447212
    outer loop
      vertex -0.568159 2.28753 -4.10292
      vertex -2.35114 0.76393 -4.47214
      vertex -1.45308 2 -3.52786
    endloop
  endfacet
  facet normal -0.525732 0.723607 -0.447212
    outer loop
      vertex -2.35114 0.76393 -4.47214
      vertex -0.568159 2.28753 -4.10292
      vertex -1.58721 0.515715 -5.77181
    endloop
  endfacet
  facet normal 0.525731 -0.723607 0.447213
    outer loop
      vertex 0 -1.52786 -2
      vertex 1.58721 -0.515715 -2.22819
      vertex 1.45309 -0.472136 -2
    endloop
  endfacet
  facet normal 0.525731 -0.723607 0.447213
    outer loop
      vertex 0 -2.47213 -3.52786
      vertex 1.58721 -0.515715 -2.22819
      vertex 0 -1.52786 -2
    endloop
  endfacet
  facet normal 0.525731 -0.723607 0.447213
    outer loop
      vertex 1.58721 -0.515715 -2.22819
      vertex 0 -2.47213 -3.52786
      vertex 0.568159 -2.28753 -3.89708
    endloop
  endfacet
  facet normal 0.525732 -0.723607 0.447212
    outer loop
      vertex 0.568159 -2.28753 -3.89708
      vertex 2.35114 -0.76393 -3.52786
      vertex 1.58721 -0.515715 -2.22819
    endloop
  endfacet
  facet normal 0.525732 -0.723607 0.447213
    outer loop
      vertex 2.35114 -0.76393 -3.52786
      vertex 0.568159 -2.28753 -3.89708
      vertex 1.45308 -2 -4.47214
    endloop
  endfacet
  facet normal -0.850651 -0.276393 -0.447213
    outer loop
      vertex -0.898058 -1.23607 -6
      vertex -1.58721 0.515715 -5.77181
      vertex -1.45309 0.472136 -6
    endloop
  endfacet
  facet normal -0.850651 -0.276393 -0.447213
    outer loop
      vertex -1.58721 0.515715 -5.77181
      vertex -2.35114 0.166532 -4.10292
      vertex -2.35114 0.76393 -4.47214
    endloop
  endfacet
  facet normal -0.850651 -0.276393 -0.447213
    outer loop
      vertex -1.58721 0.515715 -5.77181
      vertex -0.898058 -1.23607 -6
      vertex -0.980952 -1.35016 -5.77181
    endloop
  endfacet
  facet normal -0.850651 -0.276393 -0.447213
    outer loop
      vertex -1.58721 0.515715 -5.77181
      vertex -0.980952 -1.35016 -5.77181
      vertex -2.35114 0.166532 -4.10292
    endloop
  endfacet
  facet normal -0.850651 -0.276393 -0.447213
    outer loop
      vertex -0.980952 -1.35016 -5.77181
      vertex -2.35114 -0.166532 -3.89708
      vertex -2.35114 0.166532 -4.10292
    endloop
  endfacet
  facet normal -0.850651 -0.276394 -0.447212
    outer loop
      vertex -1.45308 -2 -4.47214
      vertex -2.35114 -0.166532 -3.89708
      vertex -0.980952 -1.35016 -5.77181
    endloop
  endfacet
  facet normal -0.850651 -0.276394 -0.447212
    outer loop
      vertex -2.35114 -0.166532 -3.89708
      vertex -1.45308 -2 -4.47214
      vertex -2.35114 -0.76393 -3.52786
    endloop
  endfacet
  facet normal 0.850651 0.276393 0.447213
    outer loop
      vertex 1.58721 -0.515715 -2.22819
      vertex 0.980952 1.35016 -2.22819
      vertex 0.898058 1.23607 -2
    endloop
  endfacet
  facet normal 0.850651 0.276393 0.447213
    outer loop
      vertex 1.58721 -0.515715 -2.22819
      vertex 0.898058 1.23607 -2
      vertex 1.45309 -0.472136 -2
    endloop
  endfacet
  facet normal 0.850651 0.276393 0.447213
    outer loop
      vertex 0.980952 1.35016 -2.22819
      vertex 1.58721 -0.515715 -2.22819
      vertex 2.35114 -0.166532 -3.89708
    endloop
  endfacet
  facet normal 0.850651 0.276393 0.447213
    outer loop
      vertex 2.35114 -0.166532 -3.89708
      vertex 1.58721 -0.515715 -2.22819
      vertex 2.35114 -0.76393 -3.52786
    endloop
  endfacet
  facet normal 0.850651 0.276394 0.447212
    outer loop
      vertex 2.35114 0.166532 -4.10292
      vertex 1.45308 2 -3.52786
      vertex 0.980952 1.35016 -2.22819
    endloop
  endfacet
  facet normal 0.850651 0.276394 0.447212
    outer loop
      vertex 1.45308 2 -3.52786
      vertex 2.35114 0.166532 -4.10292
      vertex 2.35114 0.76393 -4.47214
    endloop
  endfacet
  facet normal 0.850651 0.276393 0.447213
    outer loop
      vertex 2.35114 0.166532 -4.10292
      vertex 0.980952 1.35016 -2.22819
      vertex 2.35114 -0.166532 -3.89708
    endloop
  endfacet
  facet normal 0 0 1
    outer loop
      vertex 0.898058 1.23607 -2
      vertex 0 -1.52786 -2
      vertex 1.45309 -0.472136 -2
    endloop
  endfacet
  facet normal -0 0 1
    outer loop
      vertex -0.898058 1.23607 -2
      vertex 0 -1.52786 -2
      vertex 0.898058 1.23607 -2
    endloop
  endfacet
  facet normal 0 0 1
    outer loop
      vertex 0 -1.52786 -2
      vertex -0.898058 1.23607 -2
      vertex -1.45309 -0.472136 -2
    endloop
  endfacet
  facet normal 0 0 -1
    outer loop
      vertex 0.898058 -1.23607 -6
      vertex 0 1.52786 -6
      vertex 1.45309 0.472136 -6
    endloop
  endfacet
  facet normal 0 0 -1
    outer loop
      vertex -0.898058 -1.23607 -6
      vertex 0 1.52786 -6
      vertex 0.898058 -1.23607 -6
    endloop
  endfacet
  facet normal 0 0 -1
    outer loop
      vertex 0 1.52786 -6
      vertex -0.898058 -1.23607 -6
      vertex -1.45309 0.472136 -6
    endloop
  endfacet
endsolid OpenSCAD_Model
